PathFileType	4	(X/Y/Z)	OpenSim_static_markers.trc
DataRate	CameraRate	NumFrames	NumMarkers	Units	OrigDataRate	OrigDataStartFrame	OrigNumFrames
100	100	7	39	m	100	1	7
Frame#	Time	APEX	L1MT	L2MT	L5MT	LASI	LCAL	LFBH	LLEP	LLML	LMEP	LMML	LPS1	LPS2	LSH1	LSH2	LSH3	LTH1	LTH2	LTH3	LTTB	R1MT	R2MT	R5MT	RASI	RCAL	RGTR	RLEP	RLML	RMEP	RMML	RPS1	RPS2	RSH1	RSH2	RSH3	RTH1	RTH2	RTH3	RTTB
				X1	Y1	Z1	X2	Y2	Z2	X3	Y3	Z3	X4	Y4	Z4	X5	Y5	Z5	X6	Y6	Z6	X7	Y7	Z7	X8	Y8	Z8	X9	Y9	Z9	X10	Y10	Z10	X11	Y11	Z11	X12	Y12	Z12	X13	Y13	Z13	X14	Y14	Z14	X15	Y15	Z15	X16	Y16	Z16	X17	Y17	Z17	X18	Y18	Z18	X19	Y19	Z19	X20	Y20	Z20	X21	Y21	Z21	X22	Y22	Z22	X23	Y23	Z23	X24	Y24	Z24	X25	Y25	Z25	X26	Y26	Z26	X27	Y27	Z27	X28	Y28	Z28	X29	Y29	Z29	X30	Y30	Z30	X31	Y31	Z31	X32	Y32	Z32	X33	Y33	Z33	X34	Y34	Z34	X35	Y35	Z35	X36	Y36	Z36	X37	Y37	Z37	X38	Y38	Z38	X39		Y39	Z39	

1	0	0.81869900	1.69031700	-0.56584900	0.72573700	0.05823600	-0.58719600	0.71843200	0.07478800	-0.63858900	0.68199500	0.04336200	-0.69775500	0.71059600	0.97524200	-0.65880700	0.52390400	0.08478000	-0.57903400	0.58335700	0.93173000	-0.71265600	0.66600400	0.53150600	-0.68602700	0.58877200	0.11242200	-0.64297200	0.69867500	0.50772400	-0.57193800	0.61208900	0.11791500	-0.55775000	0.52168400	1.09156600	-0.57308900	0.50227100	1.02329700	-0.56973500	0.60524700	0.45720900	-0.69627800	0.57763700	0.35800100	-0.69956500	0.63537100	0.34179100	-0.70253000	0.59900100	0.84263600	-0.72722400	0.62006000	0.74066700	-0.72007600	0.67788500	0.75273800	-0.72253400	0.70499500	0.41950800	-0.63454000	0.70832000	0.05951100	-0.38244800	0.70490700	0.07608900	-0.32550600	0.67803200	0.05029800	-0.27647500	0.71447600	0.99704500	-0.40289200	0.50530700	0.08975600	-0.36838100	0.59698700	0.94130000	-0.32624500	0.67438200	0.54891300	-0.32282200	0.58227500	0.12306900	-0.31986400	0.69921400	0.51229100	-0.44624700	0.59462000	0.11217600	-0.40468000	0.52163600	1.09925900	-0.52471700	0.50173700	1.02615100	-0.50225600	0.68240900	0.44330800	-0.29845700	0.64973600	0.34424800	-0.28594700	0.59384400	0.36303100	-0.27681600	0.69603500	0.83989100	-0.32132500	0.70066400	0.73502200	-0.31979600	0.64131900	0.73189600	-0.31086100	0.70806300	0.42645600	-0.35934200
2	0.01000000	0.81903900	1.68992200	-0.56323900	0.72567600	0.05822600	-0.58717400	0.71837900	0.07481600	-0.63854700	0.68192000	0.04332200	-0.69771400	0.71186200	0.97454700	-0.65753400	0.52382700	0.08471000	-0.57907200	0.58437600	0.93079000	-0.71198000	0.66931600	0.53059100	-0.68606300	0.58864600	0.11254400	-0.64311700	0.70174600	0.50692400	-0.57166000	0.61211400	0.11783800	-0.55767700	0.52267600	1.09097800	-0.57207000	0.50342400	1.02227000	-0.56854300	0.60833900	0.45683700	-0.69641800	0.57995800	0.35784100	-0.70007500	0.63753700	0.34103300	-0.70290900	0.60063800	0.84173000	-0.72656000	0.62193100	0.73983900	-0.71949400	0.67979200	0.75207300	-0.72187700	0.70785400	0.41834200	-0.63483800	0.70827800	0.05949400	-0.38254700	0.70473600	0.07607900	-0.32559000	0.67799000	0.05033200	-0.27646500	0.71521500	0.99589100	-0.40162500	0.50509700	0.08934600	-0.36841900	0.59802800	0.94001100	-0.32539700	0.67665000	0.54747400	-0.32254700	0.58229900	0.12245300	-0.31996800	0.70128800	0.51119400	-0.44568900	0.59455300	0.11201200	-0.40499700	0.52270400	1.09802900	-0.52354800	0.50262200	1.02526800	-0.50128000	0.68446500	0.44182100	-0.29774800	0.65116300	0.34298600	-0.28562900	0.59540200	0.36222500	-0.27635000	0.69768800	0.83920100	-0.32056800	0.70220000	0.73384100	-0.31927300	0.64273000	0.73056000	-0.31022600	0.70985700	0.42491900	-0.35891900
3	0.02000000	0.81945300	1.68942700	-0.56037800	0.72569500	0.05821900	-0.58714200	0.71841300	0.07485900	-0.63852600	0.68194500	0.04333700	-0.69771200	0.71262800	0.97352100	-0.65613200	0.52381700	0.08471800	-0.57911700	0.58553700	0.93005900	-0.71153100	0.67313900	0.53027100	-0.68680900	0.58878600	0.11260400	-0.64316700	0.70529100	0.50597400	-0.57168900	0.61230100	0.11777300	-0.55755100	0.52311700	1.09016700	-0.57118500	0.50422100	1.02141700	-0.56762000	0.61217700	0.45629300	-0.69670800	0.58276000	0.35763700	-0.70065300	0.64028100	0.34040800	-0.70318400	0.60230600	0.84070700	-0.72592500	0.62399400	0.73895600	-0.71904400	0.68167800	0.75140300	-0.72131700	0.71122300	0.41726800	-0.63504000	0.70822500	0.05945000	-0.38259400	0.70455400	0.07597700	-0.32566800	0.67794600	0.05032300	-0.27643400	0.71607200	0.99456800	-0.40049000	0.50495500	0.08905600	-0.36837300	0.59896000	0.93857300	-0.32451100	0.67928900	0.54623600	-0.32213100	0.58237400	0.12203600	-0.31994600	0.70338900	0.51006900	-0.44495900	0.59444200	0.11186800	-0.40517600	0.52379300	1.09687900	-0.52236200	0.50344600	1.02414700	-0.50003900	0.68714500	0.44039900	-0.29702200	0.65285400	0.34160700	-0.28501400	0.59722000	0.36141500	-0.27569700	0.69959900	0.83815000	-0.31947700	0.70389600	0.73264100	-0.31854600	0.64444100	0.72902200	-0.30964900	0.71258400	0.42367800	-0.35831800
4	0.03000000	0.81961000	1.68888700	-0.55802900	0.72567500	0.05815100	-0.58713800	0.71848500	0.07486400	-0.63844400	0.68198300	0.04339900	-0.69770300	0.71367200	0.97281300	-0.65514300	0.52384900	0.08479800	-0.57916900	0.58651100	0.92861600	-0.71070800	0.67732800	0.52937700	-0.68729300	0.58909200	0.11273800	-0.64317800	0.70966800	0.50513400	-0.57171700	0.61255200	0.11776600	-0.55743800	0.52362500	1.08891200	-0.56971400	0.50491900	1.02033600	-0.56659400	0.61640600	0.45572900	-0.69733600	0.58618700	0.35746900	-0.70122200	0.64353800	0.33972700	-0.70346800	0.60399400	0.83963800	-0.72530700	0.62621600	0.73804000	-0.71860100	0.68383200	0.75071700	-0.72081800	0.71494800	0.41611300	-0.63540800	0.70821400	0.05939100	-0.38262600	0.70450000	0.07593000	-0.32569500	0.67793800	0.05030700	-0.27639600	0.71701100	0.99351900	-0.39934400	0.50486000	0.08886600	-0.36831200	0.59966200	0.93692700	-0.32382900	0.68268500	0.54524100	-0.32112400	0.58249600	0.12184400	-0.31993300	0.70600500	0.50899900	-0.44417100	0.59437800	0.11176600	-0.40523600	0.52469400	1.09573200	-0.52127200	0.50431900	1.02281000	-0.49892800	0.68985000	0.43895700	-0.29622400	0.65500300	0.34052200	-0.28432800	0.59938600	0.36060900	-0.27493600	0.70126200	0.83727600	-0.31814600	0.70563400	0.73146200	-0.31769900	0.64610200	0.72753900	-0.30872700	0.71536400	0.42229700	-0.35771800
5	0.04000000	0.81998100	1.68803000	-0.55489400	0.72568900	0.05814900	-0.58716100	0.71855400	0.07487000	-0.63845300	0.68200900	0.04344400	-0.69771600	0.71423500	0.97181300	-0.65383100	0.52387600	0.08494300	-0.57924100	0.58748800	0.92770800	-0.71028900	0.68194700	0.52847000	-0.68773100	0.58943200	0.11296900	-0.64319900	0.71410800	0.50416300	-0.57212400	0.61278700	0.11781800	-0.55737500	0.52449900	1.08791900	-0.56864600	0.50563000	1.01903900	-0.56538700	0.62119800	0.45525800	-0.69809800	0.59000200	0.35724500	-0.70196300	0.64724800	0.33893100	-0.70366300	0.60580200	0.83853400	-0.72478500	0.62858800	0.73690800	-0.71826300	0.68624400	0.75006300	-0.72031600	0.71891000	0.41493500	-0.63567700	0.70825500	0.05934300	-0.38266700	0.70465000	0.07591300	-0.32575800	0.67794800	0.05029100	-0.27637000	0.71778500	0.99209400	-0.39811600	0.50481800	0.08879500	-0.36830400	0.60023500	0.93525900	-0.32283500	0.68628100	0.54410600	-0.31999900	0.58269300	0.12176200	-0.31990500	0.70891300	0.50790500	-0.44325600	0.59440600	0.11168800	-0.40529700	0.52529200	1.09427600	-0.52008800	0.50496200	1.02154000	-0.49814400	0.69318300	0.43776300	-0.29547400	0.65739100	0.33922400	-0.28364100	0.60220900	0.35977300	-0.27417500	0.70266500	0.83621900	-0.31663200	0.70757500	0.73030900	-0.31662400	0.64807600	0.72599000	-0.30773100	0.71824200	0.42077400	-0.35680600
6	0.05000000	0.82048000	1.68702900	-0.55217800	0.72568600	0.05811700	-0.58719600	0.71854400	0.07478000	-0.63845400	0.68202500	0.04345100	-0.69772000	0.71489300	0.97086300	-0.65255200	0.52383500	0.08517400	-0.57922400	0.58835800	0.92666600	-0.70996000	0.68721200	0.52736300	-0.68828800	0.58975800	0.11328100	-0.64328700	0.71925200	0.50312200	-0.57239000	0.61302500	0.11791100	-0.55735900	0.52558300	1.08630000	-0.56742900	0.50610000	1.01777900	-0.56444900	0.62631900	0.45469800	-0.69910500	0.59404500	0.35661300	-0.70261200	0.65108000	0.33799600	-0.70398600	0.60765400	0.83728200	-0.72433600	0.63113600	0.73579800	-0.71804900	0.68880400	0.74941400	-0.71985500	0.72315300	0.41361900	-0.63596100	0.70830400	0.05927700	-0.38271700	0.70464300	0.07595800	-0.32572000	0.67797500	0.05027600	-0.27634300	0.71832700	0.99049200	-0.39723400	0.50482300	0.08878800	-0.36831700	0.60092000	0.93367600	-0.32180100	0.69014800	0.54275200	-0.31886800	0.58296100	0.12172900	-0.31987900	0.71240400	0.50682400	-0.44223600	0.59445000	0.11164400	-0.40537000	0.52589600	1.09271200	-0.51884700	0.50542300	1.01984000	-0.49697400	0.69695800	0.43608900	-0.29473100	0.66016600	0.33798100	-0.28324200	0.60539300	0.35886500	-0.27327400	0.70401600	0.83504500	-0.31533500	0.70971000	0.72913400	-0.31538700	0.65020300	0.72438800	-0.30664700	0.72197400	0.41955200	-0.35611100
7	0.06000000	0.82071000	1.68576400	-0.54936900	0.72572200	0.05810800	-0.58723000	0.71855300	0.07468300	-0.63859100	0.68204200	0.04345400	-0.69772900	0.71536300	0.96972800	-0.65165200	0.52390400	0.08548600	-0.57934700	0.58904600	0.92560300	-0.71001800	0.69297600	0.52604800	-0.68886200	0.59018200	0.11353300	-0.64328900	0.72457500	0.50195200	-0.57294000	0.61331700	0.11803500	-0.55736900	0.52557300	1.08483700	-0.56640600	0.50643300	1.01601700	-0.56328800	0.63167000	0.45393500	-0.70013400	0.59825600	0.35644500	-0.70343400	0.65506400	0.33701600	-0.70434600	0.60973900	0.83596400	-0.72385700	0.63401800	0.73461900	-0.71784100	0.69152100	0.74868200	-0.71948500	0.72783000	0.41222100	-0.63639400	0.70838000	0.05920900	-0.38276400	0.70449100	0.07592700	-0.32566200	0.67798800	0.05027700	-0.27633900	0.71879900	0.98905100	-0.39625000	0.50485800	0.08880400	-0.36834000	0.60170700	0.93218800	-0.32067500	0.69449300	0.54139000	-0.31773400	0.58333300	0.12176700	-0.31991700	0.71633800	0.50584200	-0.44106300	0.59457400	0.11162600	-0.40547000	0.52611600	1.09121800	-0.51768500	0.50583400	1.01828800	-0.49604700	0.70118200	0.43445500	-0.29398100	0.66353100	0.33658800	-0.28281800	0.60901600	0.35798100	-0.27237800	0.70568400	0.83380000	-0.31433000	0.71209300	0.72792100	-0.31399500	0.65251400	0.72275500	-0.30544900	0.72584100	0.41802900	-0.35528800
